<svg width="25" height="24" viewBox="0 0 25 24" fill="currentColor" xmlns="http://www.w3.org/2000/svg">
<path d="M4.5 4C4.5 2.89543 5.39543 2 6.5 2H18.5C19.6046 2 20.5 2.89543 20.5 4V21C20.5 21.3746 20.2907 21.7178 19.9576 21.8892C19.6245 22.0606 19.2236 22.0315 18.9188 21.8137L12.5 17.2289L6.08124 21.8137C5.77642 22.0315 5.37549 22.0606 5.04242 21.8892C4.70935 21.7178 4.5 21.3746 4.5 21V4ZM18.5 4L6.5 4V19.0568L11.9188 15.1863C12.2665 14.9379 12.7335 14.9379 13.0812 15.1863L18.5 19.0568V4Z"/>
</svg>
