<svg width="25" height="24" viewBox="0 0 25 24" fill="currentColor" xmlns="http://www.w3.org/2000/svg">
<path d="M12.5 4C10.2909 4 8.5 5.79086 8.5 8C8.5 10.2091 10.2909 12 12.5 12C14.7091 12 16.5 10.2091 16.5 8C16.5 5.79086 14.7091 4 12.5 4ZM6.5 8C6.5 4.68629 9.18629 2 12.5 2C15.8137 2 18.5 4.68629 18.5 8C18.5 11.3137 15.8137 14 12.5 14C9.18629 14 6.5 11.3137 6.5 8ZM8.5 18C6.84315 18 5.5 19.3431 5.5 21C5.5 21.5523 5.05228 22 4.5 22C3.94772 22 3.5 21.5523 3.5 21C3.5 18.2386 5.73858 16 8.5 16H16.5C19.2614 16 21.5 18.2386 21.5 21C21.5 21.5523 21.0523 22 20.5 22C19.9477 22 19.5 21.5523 19.5 21C19.5 19.3431 18.1569 18 16.5 18H8.5Z"/>
</svg>
