<svg width="25" height="24" viewBox="0 0 25 24" fill="currentColor" xmlns="http://www.w3.org/2000/svg">
<path d="M4.5 4C4.5 2.89543 5.39543 2 6.5 2H14.5C14.7652 2 15.0196 2.10536 15.2071 2.29289L20.2071 7.29289C20.3946 7.48043 20.5 7.73478 20.5 8V20C20.5 21.1046 19.6046 22 18.5 22H6.5C5.39543 22 4.5 21.1046 4.5 20V4ZM18.0858 8L14.5 4.41421V8H18.0858ZM12.5 4L6.5 4V20H18.5V10H13.5C12.9477 10 12.5 9.55228 12.5 9V4ZM8.5 13C8.5 12.4477 8.94772 12 9.5 12H15.5C16.0523 12 16.5 12.4477 16.5 13C16.5 13.5523 16.0523 14 15.5 14H9.5C8.94772 14 8.5 13.5523 8.5 13ZM8.5 17C8.5 16.4477 8.94772 16 9.5 16H15.5C16.0523 16 16.5 16.4477 16.5 17C16.5 17.5523 16.0523 18 15.5 18H9.5C8.94772 18 8.5 17.5523 8.5 17Z"/>
</svg>
