<svg width="25" height="24" viewBox="0 0 25 24" fill="currentColor" xmlns="http://www.w3.org/2000/svg">
<path d="M7.5 4C6.94772 4 6.5 4.44772 6.5 5V12V19C6.5 19.5523 6.94772 20 7.5 20H14C16.4853 20 18.5 17.9853 18.5 15.5C18.5 13.5575 17.2692 11.9025 15.5449 11.2722C16.1433 10.5081 16.5 9.54573 16.5 8.5C16.5 6.01472 14.4853 4 12 4H7.5ZM12 11H8.5V6H12C13.3807 6 14.5 7.11929 14.5 8.5C14.5 9.88071 13.3807 11 12 11ZM8.5 13H12H14C15.3807 13 16.5 14.1193 16.5 15.5C16.5 16.8807 15.3807 18 14 18H8.5V13Z"/>
</svg>
